<svg width="36" height="36" viewBox="0 0 36 36" fill="none" xmlns="http://www.w3.org/2000/svg">
<path fill-rule="evenodd" clip-rule="evenodd" d="M24.3613 11.5244C24.8311 11.931 24.8822 12.6415 24.4756 13.1113L16.685 22.1113C16.4818 22.346 16.1907 22.4863 15.8806 22.499C15.5704 22.5118 15.2688 22.3958 15.0471 22.1786L11.5877 18.7895C11.1439 18.3547 11.1366 17.6425 11.5714 17.1986C12.0062 16.7548 12.7185 16.7475 13.1623 17.1823L15.7669 19.734L22.7744 11.6387C23.1811 11.1689 23.8915 11.1178 24.3613 11.5244Z" fill="#1488DB"/>
<path fill-rule="evenodd" clip-rule="evenodd" d="M17.5369 2.34971C17.8313 2.21676 18.1686 2.21676 18.463 2.34971C24.0562 4.8757 26.567 5.68275 32.7603 6.79369C33.2703 6.88517 33.6518 7.3131 33.6844 7.83018C34.8734 26.6748 19.5803 33.2014 18.4202 33.6686C18.1506 33.7771 17.8494 33.7771 17.5797 33.6686C16.4196 33.2014 1.12649 26.6748 2.31548 7.83018C2.3481 7.3131 2.72965 6.88517 3.23961 6.79369C9.43289 5.68275 11.9437 4.8757 17.5369 2.34971ZM4.51818 8.84761C3.98772 24.1964 15.4928 30.2631 18 31.4002C20.5072 30.2631 32.0122 24.1964 31.4817 8.84761C25.885 7.80862 23.1779 6.92871 18 4.60861C12.822 6.92871 10.1149 7.80863 4.51818 8.84761Z" fill="#1488DB"/>
</svg>
